<svg viewBox="0 0 13.9941 13.9941" xmlns="http://www.w3.org/2000/svg" xmlns:xlink="http://www.w3.org/1999/xlink" width="13.994141" height="13.994141" fill="none">
	<rect id="Frame" width="13.994141" height="13.994141" x="0.000000" y="0.000000" fill="rgb(255,255,255)" fill-opacity="0" />
	<path id="Vector" d="M5.91806 11.9685C5.97501 12.0607 6.05653 12.1352 6.15346 12.1836L7.31963 12.7667C7.40855 12.8112 7.50736 12.8321 7.60666 12.8276C7.70596 12.8231 7.80246 12.7933 7.887 12.741C7.97154 12.6888 8.0413 12.6157 8.08967 12.5289C8.13804 12.442 8.16341 12.3443 8.16336 12.2449L8.16336 8.16325C8.1635 7.87426 8.27092 7.59561 8.46482 7.38133L12.6765 2.72303C12.752 2.63939 12.8016 2.53567 12.8194 2.42442C12.8372 2.31316 12.8224 2.19914 12.7767 2.09613C12.7311 1.99313 12.6566 1.90555 12.5622 1.84399C12.4678 1.78243 12.3577 1.74953 12.245 1.74927L1.74938 1.74927C1.63662 1.74931 1.52628 1.78205 1.43174 1.84352C1.33721 1.90499 1.26252 1.99255 1.21673 2.0956C1.17095 2.19865 1.15602 2.31277 1.17377 2.42413C1.19152 2.53549 1.24118 2.63931 1.31673 2.72303L5.52955 7.38133C5.72345 7.59561 5.83088 7.87426 5.83101 8.16325L5.83101 11.6618C5.83096 11.7701 5.8611 11.8764 5.91806 11.9685Z" fill-rule="nonzero" stroke="rgb(0,0,0)" stroke-linecap="round" stroke-linejoin="round" stroke-width="2" />
</svg>
