<svg viewBox="0 0 25.2832 20.2344" xmlns="http://www.w3.org/2000/svg" xmlns:xlink="http://www.w3.org/1999/xlink" width="25.283203" height="20.234375" fill="none" customFrame="#000000">
	<rect id="Container" width="25.283203" height="20.234375" x="0.000000" y="0.000000" fill="rgb(255,255,255)" />
	<rect id="Container" width="25.283203" height="20.234375" x="0.000000" y="0.000000" stroke="rgb(229,231,235)" stroke-width="0" />
	<path id="⌘K" d="M8.35509 12.6097C7.95843 12.6097 7.64109 12.4935 7.40309 12.2612C7.17076 12.0289 7.05459 11.7172 7.05459 11.3262C7.05459 10.9125 7.17643 10.5924 7.42009 10.3657C7.66943 10.1334 8.03493 10.0172 8.51659 10.0172L9.01809 10.0172L9.01809 9.08219L8.51659 9.08219C8.03493 9.08219 7.66943 8.96885 7.42009 8.74219C7.17643 8.50985 7.05459 8.18685 7.05459 7.77319C7.05459 7.38219 7.17076 7.07052 7.40309 6.83819C7.64109 6.60585 7.95843 6.48969 8.35509 6.48969C8.67243 6.48969 8.92176 6.54919 9.10309 6.66819C9.29009 6.78719 9.42043 6.94585 9.49409 7.14419C9.57343 7.34252 9.61309 7.56069 9.61309 7.79869L9.61309 8.50419L10.5481 8.50419L10.5481 7.79869C10.5481 7.56069 10.5849 7.34252 10.6586 7.14419C10.7379 6.94585 10.8683 6.78719 11.0496 6.66819C11.2366 6.54919 11.4888 6.48969 11.8061 6.48969C12.2028 6.48969 12.5173 6.60585 12.7496 6.83819C12.9876 7.07052 13.1066 7.38219 13.1066 7.77319C13.1066 8.18685 12.9848 8.50985 12.7411 8.74219C12.4974 8.96885 12.1319 9.08219 11.6446 9.08219L11.1431 9.08219L11.1431 10.0172L11.6446 10.0172C12.1319 10.0172 12.4974 10.1334 12.7411 10.3657C12.9848 10.5924 13.1066 10.9125 13.1066 11.3262C13.1066 11.7172 12.9876 12.0289 12.7496 12.2612C12.5173 12.4935 12.2028 12.6097 11.8061 12.6097C11.4888 12.6097 11.2366 12.5502 11.0496 12.4312C10.8683 12.3122 10.7379 12.1535 10.6586 11.9552C10.5849 11.7569 10.5481 11.5387 10.5481 11.3007L10.5481 10.5952L9.61309 10.5952L9.61309 11.3007C9.61309 11.5387 9.57343 11.7569 9.49409 11.9552C9.42043 12.1535 9.29009 12.3122 9.10309 12.4312C8.92176 12.5502 8.67243 12.6097 8.35509 12.6097ZM11.1431 7.78169L11.1431 8.50419L11.6446 8.50419C11.9449 8.50419 12.1631 8.44469 12.2991 8.32569C12.4351 8.20102 12.5031 8.01685 12.5031 7.77319C12.5031 7.52385 12.4351 7.34535 12.2991 7.23769C12.1688 7.13002 12.0044 7.07619 11.8061 7.07619C11.5851 7.07619 11.4179 7.14135 11.3046 7.27169C11.1969 7.39635 11.1431 7.56635 11.1431 7.78169ZM8.51659 8.50419L9.01809 8.50419L9.01809 7.78169C9.01809 7.56635 8.96143 7.39635 8.84809 7.27169C8.74043 7.14135 8.57609 7.07619 8.35509 7.07619C8.15676 7.07619 7.98959 7.13002 7.85359 7.23769C7.72326 7.34535 7.65809 7.52385 7.65809 7.77319C7.65809 8.01685 7.72609 8.20102 7.86209 8.32569C7.99809 8.44469 8.21626 8.50419 8.51659 8.50419ZM9.61309 10.0172L10.5481 10.0172L10.5481 9.08219L9.61309 9.08219L9.61309 10.0172ZM8.35509 12.0232C8.57609 12.0232 8.74043 11.9609 8.84809 11.8362C8.96143 11.7059 9.01809 11.533 9.01809 11.3177L9.01809 10.5952L8.51659 10.5952C8.21626 10.5952 7.99809 10.6575 7.86209 10.7822C7.72609 10.9012 7.65809 11.0825 7.65809 11.3262C7.65809 11.5755 7.72326 11.754 7.85359 11.8617C7.98959 11.9694 8.15676 12.0232 8.35509 12.0232ZM11.1431 11.3177C11.1431 11.533 11.1969 11.7059 11.3046 11.8362C11.4179 11.9609 11.5851 12.0232 11.8061 12.0232C12.0044 12.0232 12.1688 11.9694 12.2991 11.8617C12.4351 11.754 12.5031 11.5755 12.5031 11.3262C12.5031 11.0825 12.4351 10.9012 12.2991 10.7822C12.1631 10.6575 11.9449 10.5952 11.6446 10.5952L11.1431 10.5952L11.1431 11.3177ZM17.5389 7.34819C17.2613 7.76185 16.9553 8.17269 16.6209 8.58069C16.2923 8.98869 15.9353 9.39669 15.5499 9.80469C15.7313 9.95769 15.9239 10.1362 16.1279 10.3402C16.3319 10.5442 16.5303 10.768 16.7229 11.0117C16.9213 11.2497 17.1054 11.5047 17.2754 11.7767C17.4511 12.0487 17.5984 12.3264 17.7174 12.6097L16.9269 12.6097C16.7853 12.349 16.6323 12.094 16.4679 11.8447C16.3036 11.5954 16.1279 11.363 15.9409 11.1477C15.7596 10.9324 15.5698 10.7369 15.3714 10.5612C15.1788 10.3799 14.9833 10.224 14.7849 10.0937L14.7849 12.6097L14.0879 12.6097L14.0879 7.34819L14.7849 7.34819L14.7849 9.69419C15.1533 9.31452 15.5046 8.91785 15.8389 8.50419C16.1789 8.09052 16.4764 7.70519 16.7314 7.34819L17.5389 7.34819Z" fill="rgb(156,163,175)" fill-rule="nonzero" />
</svg>
