<svg viewBox="0 0 31.9922 31.9922" xmlns="http://www.w3.org/2000/svg" xmlns:xlink="http://www.w3.org/1999/xlink" width="31.992188" height="31.992188" fill="none" customFrame="#000000">
	<rect id="Container" width="31.992188" height="31.992188" x="0.000000" y="0.000000" fill="rgb(243,244,246)" />
	<rect id="Container" width="31.992188" height="31.992188" x="0.000000" y="0.000000" stroke="rgb(238,238,238)" stroke-width="0" />
	<path id="JD" d="M13.4279 12.4691L14.4506 12.4691L14.4506 17.2902C14.4506 17.7263 14.3643 18.0993 14.1916 18.4092C14.0212 18.7191 13.781 18.9559 13.4711 19.1197C13.1612 19.2813 12.7982 19.3621 12.382 19.3621C11.9991 19.3621 11.6549 19.2924 11.3494 19.1529C11.0462 19.0135 10.806 18.8109 10.6289 18.5453C10.454 18.2775 10.3666 17.9521 10.3666 17.5691L11.3859 17.5691C11.3859 17.7573 11.4291 17.92 11.5154 18.0572C11.604 18.1945 11.7246 18.3018 11.8773 18.3793C12.0323 18.4546 12.2094 18.4922 12.4086 18.4922C12.6255 18.4922 12.8092 18.4468 12.9598 18.3561C13.1125 18.2631 13.2287 18.127 13.3084 17.9477C13.3881 17.7684 13.4279 17.5492 13.4279 17.2902L13.4279 12.4691ZM18.1453 19.2691L15.9439 19.2691L15.9439 12.4691L18.215 12.4691C18.8813 12.4691 19.4535 12.6053 19.9316 12.8775C20.4097 13.1476 20.7761 13.5361 21.0306 14.043C21.2874 14.5477 21.4158 15.1531 21.4158 15.8592C21.4158 16.5675 21.2863 17.1762 21.0273 17.6854C20.7705 18.1945 20.3986 18.5863 19.9117 18.8607C19.4247 19.133 18.8359 19.2691 18.1453 19.2691ZM16.9699 18.3727L18.0888 18.3727C18.6068 18.3727 19.0373 18.2753 19.3804 18.0805C19.7235 17.8835 19.9803 17.599 20.1507 17.2271C20.3212 16.8531 20.4064 16.3971 20.4064 15.8592C20.4064 15.3257 20.3212 14.873 20.1507 14.5012C19.9825 14.1293 19.7313 13.8471 19.397 13.6545C19.0628 13.4619 18.6477 13.3656 18.1519 13.3656L16.9699 13.3656L16.9699 18.3727Z" fill="rgb(0,0,0)" fill-rule="nonzero" />
</svg>
