<svg viewBox="0 0 63.3691 40" xmlns="http://www.w3.org/2000/svg" xmlns:xlink="http://www.w3.org/1999/xlink" width="63.369141" height="40.000000" fill="none" customFrame="#000000">
	<defs>
		<clipPath id="clipPath_18">
			<rect width="47.373047" height="17.998047" x="7.998047" y="10.996094" fill="rgb(255,255,255)" />
		</clipPath>
		<clipPath id="clipPath_19">
			<rect width="17.998047" height="17.998047" x="22.685547" y="10.996094" fill="rgb(255,255,255)" />
		</clipPath>
		<clipPath id="clipPath_20">
			<rect width="7.998047" height="7.998047" x="51.376953" y="3.994141" rx="3.999023" fill="rgb(255,255,255)" />
		</clipPath>
	</defs>
	<rect id="Button" width="63.369141" height="40.000000" x="0.000000" y="0.000000" fill="rgb(0,0,0)" fill-opacity="0" />
	<g id="Container" customFrame="url(#clipPath_18)">
		<rect id="Container" width="47.373047" height="17.998047" x="7.998047" y="10.996094" />
		<g id="Frame" clip-path="url(#clipPath_19)" customFrame="url(#clipPath_19)">
			<rect id="Frame" width="17.998047" height="17.998047" x="22.685547" y="10.996094" fill="rgb(255,255,255)" fill-opacity="0" />
			<path id="Vector" d="M33.5533 23.467C33.7187 23.4257 33.865 23.3293 33.9682 23.1937L34.2345 22.845C34.3742 22.6587 34.5553 22.5075 34.7636 22.4034C34.9718 22.2992 35.2015 22.245 35.4343 22.245L37.6841 22.245C38.0819 22.245 38.4634 22.4031 38.7446 22.6843C39.0259 22.9656 39.1839 23.3471 39.1839 23.7449L39.1839 25.9946C39.1839 26.3924 39.0259 26.7739 38.7446 27.0552C38.4634 27.3364 38.0819 27.4945 37.6841 27.4945C34.104 27.4945 30.6706 26.0723 28.1392 23.5408C25.6077 21.0094 24.1855 17.576 24.1855 13.9959C24.1855 13.5981 24.3436 13.2167 24.6248 12.9354C24.9061 12.6541 25.2876 12.4961 25.6854 12.4961L27.9351 12.4961C28.3329 12.4961 28.7144 12.6541 28.9957 12.9354C29.277 13.2167 29.435 13.5981 29.435 13.9959L29.435 16.2457C29.435 16.4785 29.3808 16.7082 29.2766 16.9164C29.1725 17.1247 29.0213 17.3059 28.835 17.4456L28.4841 17.7088C28.3464 17.8139 28.2494 17.9634 28.2095 18.132C28.1695 18.3006 28.1892 18.4777 28.2651 18.6334C29.29 20.7151 30.9756 22.3986 33.0586 23.4209C33.2135 23.492 33.3879 23.5083 33.5533 23.467Z" fill-rule="nonzero" stroke="rgb(107,114,128)" stroke-linecap="round" stroke-linejoin="round" stroke-width="1" />
		</g>
	</g>
	<g id="Container" customFrame="url(#clipPath_20)">
		<rect id="Container" width="7.998047" height="7.998047" x="51.376953" y="3.994141" rx="3.999023" fill="rgb(0,102,255)" />
	</g>
</svg>
