<svg viewBox="0 0 63.3691 40" xmlns="http://www.w3.org/2000/svg" xmlns:xlink="http://www.w3.org/1999/xlink" width="63.369141" height="40.000000" fill="none" customFrame="#000000">
	<defs>
		<clipPath id="clipPath_14">
			<rect width="47.373047" height="17.998047" x="7.998047" y="10.996094" fill="rgb(255,255,255)" />
		</clipPath>
		<clipPath id="clipPath_15">
			<rect width="17.998047" height="17.998047" x="22.685547" y="10.996094" fill="rgb(255,255,255)" />
		</clipPath>
	</defs>
	<rect id="Button" width="63.369141" height="40.000000" x="0.000000" y="0.000000" fill="rgb(0,0,0)" fill-opacity="0" />
	<g id="Container" customFrame="url(#clipPath_14)">
		<rect id="Container" width="47.373047" height="17.998047" x="7.998047" y="10.996094" />
		<g id="Frame" clip-path="url(#clipPath_15)" customFrame="url(#clipPath_15)">
			<rect id="Frame" width="17.998047" height="17.998047" x="22.685547" y="10.996094" fill="rgb(255,255,255)" fill-opacity="0" />
			<path id="Vector" d="M24.9353 13.2458L24.9353 25.2445C24.9353 25.6423 25.0933 26.0238 25.3746 26.3051C25.6559 26.5864 26.0374 26.7444 26.4351 26.7444L38.4338 26.7444" fill-rule="nonzero" stroke="rgb(107,114,128)" stroke-linecap="round" stroke-linejoin="round" stroke-width="1" />
			<path id="Vector" d="M6 0L0 0" stroke="rgb(107,114,128)" stroke-linecap="round" stroke-linejoin="round" stroke-width="1" transform="matrix(0,1,-1,0,36.1841,17.7454)" />
			<path id="Vector" d="M9 0L0 0" stroke="rgb(107,114,128)" stroke-linecap="round" stroke-linejoin="round" stroke-width="1" transform="matrix(0,1,-1,0,32.4346,14.7457)" />
			<path id="Vector" d="M2.25 0L0 0" stroke="rgb(107,114,128)" stroke-linecap="round" stroke-linejoin="round" stroke-width="1" transform="matrix(0,1,-1,0,28.6848,21.4949)" />
		</g>
	</g>
</svg>
