<svg viewBox="0 0 47.373 40" xmlns="http://www.w3.org/2000/svg" xmlns:xlink="http://www.w3.org/1999/xlink" width="47.373047" height="40.000000" fill="none" customFrame="#000000">
	<defs>
		<clipPath id="clipPath_34">
			<rect width="31.376953" height="17.998047" x="7.998047" y="10.996094" fill="rgb(255,255,255)" />
		</clipPath>
		<clipPath id="clipPath_35">
			<rect width="17.998047" height="17.998047" x="14.687500" y="10.996094" fill="rgb(255,255,255)" />
		</clipPath>
	</defs>
	<rect id="Button" width="47.373047" height="40.000000" x="0.000000" y="0.000000" fill="rgb(0,0,0)" fill-opacity="0" />
	<g id="Container" customFrame="url(#clipPath_34)">
		<rect id="Container" width="31.376953" height="17.998047" x="7.998047" y="10.996094" />
		<g id="Frame" clip-path="url(#clipPath_35)" customFrame="url(#clipPath_35)">
			<rect id="Frame" width="17.998047" height="17.998047" x="14.687500" y="10.996094" fill="rgb(255,255,255)" fill-opacity="0" />
			<path id="Vector" d="M23.5218 12.4961C23.124 12.4961 22.7425 12.6541 22.4612 12.9354C22.18 13.2167 22.0219 13.5981 22.0219 13.9959L22.0219 14.1309C22.0217 14.3939 21.9522 14.6523 21.8206 14.88C21.689 15.1077 21.4998 15.2968 21.272 15.4283L20.9496 15.6158C20.7216 15.7474 20.4629 15.8167 20.1996 15.8167C19.9364 15.8167 19.6777 15.7474 19.4497 15.6158L19.3372 15.5558C18.9931 15.3572 18.5842 15.3034 18.2004 15.406C17.8165 15.5086 17.4891 15.7594 17.29 16.1032L17.125 16.3882C16.9264 16.7323 16.8726 17.1412 16.9752 17.525C17.0779 17.9089 17.3286 18.2363 17.6724 18.4354L17.7849 18.5104C18.0116 18.6413 18.2001 18.8292 18.3316 19.0555C18.4632 19.2818 18.5332 19.5386 18.5348 19.8003L18.5348 20.1828C18.5359 20.447 18.4671 20.7069 18.3354 20.9361C18.2037 21.1652 18.0138 21.3555 17.7849 21.4876L17.6724 21.5551C17.3286 21.7543 17.0779 22.0817 16.9752 22.4655C16.8726 22.8493 16.9264 23.2582 17.125 23.6024L17.29 23.8874C17.4891 24.2312 17.8165 24.4819 18.2004 24.5845C18.5842 24.6872 18.9931 24.6333 19.3372 24.4348L19.4497 24.3748C19.6777 24.2432 19.9364 24.1739 20.1996 24.1739C20.4629 24.1739 20.7216 24.2432 20.9496 24.3748L21.272 24.5623C21.4998 24.6938 21.689 24.8829 21.8206 25.1106C21.9522 25.3383 22.0217 25.5966 22.0219 25.8596L22.0219 25.9946C22.0219 26.3924 22.18 26.7739 22.4612 27.0552C22.7425 27.3364 23.124 27.4945 23.5218 27.4945L23.8517 27.4945C24.2495 27.4945 24.631 27.3364 24.9123 27.0552C25.1936 26.7739 25.3516 26.3924 25.3516 25.9946L25.3516 25.8596C25.3519 25.5966 25.4213 25.3383 25.5529 25.1106C25.6845 24.8829 25.8737 24.6938 26.1015 24.5623L26.424 24.3748C26.652 24.2432 26.9106 24.1739 27.1739 24.1739C27.4372 24.1739 27.6958 24.2432 27.9238 24.3748L28.0363 24.4348C28.3805 24.6333 28.7893 24.6872 29.1732 24.5845C29.557 24.4819 29.8844 24.2312 30.0836 23.8874L30.2486 23.5949C30.4471 23.2507 30.5009 22.8418 30.3983 22.458C30.2957 22.0742 30.0449 21.7468 29.7011 21.5476L29.5886 21.4876C29.3597 21.3555 29.1698 21.1652 29.0382 20.9361C28.9065 20.7069 28.8377 20.447 28.8387 20.1828L28.8387 19.8078C28.8377 19.5435 28.9065 19.2836 29.0382 19.0545C29.1698 18.8254 29.3597 18.6351 29.5886 18.5029L29.7011 18.4354C30.0449 18.2363 30.2957 17.9089 30.3983 17.525C30.5009 17.1412 30.4471 16.7323 30.2486 16.3882L30.0836 16.1032C29.8844 15.7594 29.557 15.5086 29.1732 15.406C28.7893 15.3034 28.3805 15.3572 28.0363 15.5558L27.9238 15.6158C27.6958 15.7474 27.4372 15.8167 27.1739 15.8167C26.9106 15.8167 26.652 15.7474 26.424 15.6158L26.1015 15.4283C25.8737 15.2968 25.6845 15.1077 25.5529 14.88C25.4213 14.6523 25.3519 14.3939 25.3516 14.1309L25.3516 13.9959C25.3516 13.5981 25.1936 13.2167 24.9123 12.9354C24.631 12.6541 24.2495 12.4961 23.8517 12.4961L23.5218 12.4961Z" fill-rule="nonzero" stroke="rgb(107,114,128)" stroke-linecap="round" stroke-linejoin="round" stroke-width="1" />
			<path id="Vector" d="M23.6868 22.2454C22.4441 22.2454 21.4368 21.238 21.4368 19.9954C21.4368 18.7527 22.4441 17.7454 23.6868 17.7454C24.9294 17.7454 25.9368 18.7527 25.9368 19.9954C25.9368 21.238 24.9294 22.2454 23.6868 22.2454Z" stroke="rgb(107,114,128)" stroke-linecap="round" stroke-linejoin="round" stroke-width="1" />
		</g>
	</g>
</svg>
