<svg viewBox="0 0 63.3691 40" xmlns="http://www.w3.org/2000/svg" xmlns:xlink="http://www.w3.org/1999/xlink" width="63.369141" height="40.000000" fill="none" customFrame="#000000">
	<defs>
		<clipPath id="clipPath_21">
			<rect width="47.373047" height="17.998047" x="7.998047" y="10.996094" fill="rgb(255,255,255)" />
		</clipPath>
		<clipPath id="clipPath_22">
			<rect width="17.998047" height="17.998047" x="22.685547" y="10.996094" fill="rgb(255,255,255)" />
		</clipPath>
	</defs>
	<rect id="Button" width="63.369141" height="40.000000" x="0.000000" y="0.000000" fill="rgb(0,0,0)" fill-opacity="0" />
	<g id="Container" customFrame="url(#clipPath_21)">
		<rect id="Container" width="47.373047" height="17.998047" x="7.998047" y="10.996094" />
		<g id="Frame" clip-path="url(#clipPath_22)" customFrame="url(#clipPath_22)">
			<rect id="Frame" width="17.998047" height="17.998047" x="22.685547" y="10.996094" fill="rgb(255,255,255)" fill-opacity="0" />
			<path id="Vector" d="M39.1839 16.2455L32.4414 20.5407C32.2126 20.6736 31.9527 20.7436 31.6881 20.7436C31.4235 20.7436 31.1636 20.6736 30.9348 20.5407L24.1855 16.2455" fill-rule="nonzero" stroke="rgb(107,114,128)" stroke-linecap="round" stroke-linejoin="round" stroke-width="1" />
			<path id="Vector" d="M37.6841 13.9957C38.5124 13.9957 39.1839 14.6672 39.1839 15.4956L39.1839 24.4946C39.1839 25.3229 38.5124 25.9944 37.6841 25.9944L25.6854 25.9944C24.857 25.9944 24.1855 25.3229 24.1855 24.4946L24.1855 15.4956C24.1855 14.6672 24.857 13.9957 25.6854 13.9957L37.6841 13.9957Z" stroke="rgb(107,114,128)" stroke-linecap="round" stroke-linejoin="round" stroke-width="1" />
		</g>
	</g>
</svg>
