<svg viewBox="0 0 63.3691 40" xmlns="http://www.w3.org/2000/svg" xmlns:xlink="http://www.w3.org/1999/xlink" width="63.369141" height="40.000000" fill="none" customFrame="#000000">
	<defs>
		<clipPath id="clipPath_27">
			<rect width="47.373047" height="17.998047" x="7.998047" y="10.996094" fill="rgb(255,255,255)" />
		</clipPath>
		<clipPath id="clipPath_28">
			<rect width="17.998047" height="17.998047" x="22.685547" y="10.996094" fill="rgb(255,255,255)" />
		</clipPath>
	</defs>
	<rect id="Button" width="63.369141" height="40.000000" x="0.000000" y="0.000000" fill="rgb(0,0,0)" fill-opacity="0" />
	<g id="Container" customFrame="url(#clipPath_27)">
		<rect id="Container" width="47.373047" height="17.998047" x="7.998047" y="10.996094" />
		<g id="Frame" clip-path="url(#clipPath_28)" customFrame="url(#clipPath_28)">
			<rect id="Frame" width="17.998047" height="17.998047" x="22.685547" y="10.996094" fill="rgb(255,255,255)" fill-opacity="0" />
			<path id="Vector" d="M31.475 12.556C31.5379 12.5169 31.6105 12.4962 31.6846 12.4962C31.7587 12.4962 31.8313 12.5169 31.8943 12.556C31.9572 12.5951 32.008 12.651 32.0408 12.7174L33.7731 16.2262C33.8873 16.4572 34.0557 16.657 34.2641 16.8085C34.4724 16.96 34.7144 17.0587 34.9693 17.0961L38.8433 17.6631C38.9167 17.6737 38.9857 17.7047 39.0424 17.7525C39.0992 17.8003 39.1414 17.863 39.1643 17.9335C39.1873 18.004 39.19 18.0796 39.1722 18.1516C39.1545 18.2236 39.1169 18.2892 39.0638 18.341L36.2621 21.0692C36.0774 21.2493 35.9391 21.4715 35.8593 21.7169C35.7795 21.9622 35.7605 22.2232 35.8039 22.4776L36.4654 26.3321C36.4783 26.4055 36.4704 26.481 36.4425 26.5501C36.4146 26.6192 36.3678 26.6791 36.3075 26.7228C36.2472 26.7666 36.1759 26.7926 36.1015 26.7978C36.0272 26.8029 35.9529 26.7871 35.8872 26.7521L32.424 24.9313C32.1959 24.8115 31.942 24.7489 31.6842 24.7489C31.4265 24.7489 31.1726 24.8115 30.9444 24.9313L27.4821 26.7521C27.4163 26.7869 27.3421 26.8025 27.2679 26.7973C27.1937 26.792 27.1225 26.766 27.0623 26.7223C27.0022 26.6785 26.9555 26.6187 26.9276 26.5498C26.8997 26.4808 26.8918 26.4054 26.9046 26.3321L27.5653 22.4783C27.609 22.2239 27.59 21.9627 27.5102 21.7172C27.4304 21.4717 27.2921 21.2493 27.1071 21.0692L24.3054 18.3418C24.2519 18.29 24.2139 18.2243 24.1959 18.1521C24.1779 18.0798 24.1805 18.004 24.2035 17.9332C24.2265 17.8624 24.2689 17.7994 24.3259 17.7516C24.3829 17.7037 24.4522 17.6727 24.5259 17.6623L28.3992 17.0961C28.6544 17.059 28.8967 16.9604 29.1053 16.8089C29.314 16.6574 29.4826 16.4574 29.5968 16.2262L31.3284 12.7174C31.3613 12.651 31.412 12.5951 31.475 12.556Z" fill-rule="nonzero" stroke="rgb(107,114,128)" stroke-linecap="round" stroke-linejoin="round" stroke-width="1" />
		</g>
	</g>
</svg>
