<svg viewBox="0 0 63.3691 40" xmlns="http://www.w3.org/2000/svg" xmlns:xlink="http://www.w3.org/1999/xlink" width="63.369141" height="40.000000" fill="none" customFrame="#000000">
	<defs>
		<clipPath id="clipPath_4">
			<rect width="47.373047" height="17.998047" x="7.998047" y="10.996094" fill="rgb(255,255,255)" />
		</clipPath>
		<clipPath id="clipPath_5">
			<rect width="17.998047" height="17.998047" x="22.685547" y="10.996094" fill="rgb(255,255,255)" />
		</clipPath>
		<clipPath id="clipPath_6">
			<rect width="7.998047" height="7.998047" x="51.376953" y="3.994141" rx="3.999023" fill="rgb(255,255,255)" />
		</clipPath>
	</defs>
	<rect id="Button" width="63.369141" height="40.000000" x="0.000000" y="0.000000" fill="rgb(0,0,0)" fill-opacity="0" />
	<g id="Container" customFrame="url(#clipPath_4)">
		<rect id="Container" width="47.373047" height="17.998047" x="7.998047" y="10.996094" />
		<g id="Frame" clip-path="url(#clipPath_5)" customFrame="url(#clipPath_5)">
			<rect id="Frame" width="17.998047" height="17.998047" x="22.685547" y="10.996094" fill="rgb(255,255,255)" fill-opacity="0" />
			<path id="Vector" d="M34.6844 26.7449L34.6844 25.2449C34.6844 24.4492 34.3684 23.6862 33.8058 23.1236C33.2433 22.5609 32.4803 22.2449 31.6847 22.2449L27.1852 22.2449C26.3897 22.2449 25.6267 22.5609 25.0641 23.1236C24.5016 23.6862 24.1855 24.4492 24.1855 25.2449L24.1855 26.7449" fill-rule="nonzero" stroke="rgb(107,114,128)" stroke-linecap="round" stroke-linejoin="round" stroke-width="1" />
			<path id="Vector" d="M34.6843 13.3419C35.3276 13.5086 35.8974 13.8843 36.3041 14.4099C36.7108 14.9355 36.9315 15.5813 36.9315 16.2459C36.9315 16.9104 36.7108 17.5562 36.3041 18.0818C35.8974 18.6074 35.3276 18.9831 34.6843 19.1499" fill-rule="nonzero" stroke="rgb(107,114,128)" stroke-linecap="round" stroke-linejoin="round" stroke-width="1" />
			<path id="Vector" d="M39.1841 26.7448L39.1841 25.2448C39.1836 24.5801 38.9623 23.9344 38.5551 23.4091C38.1479 22.8837 37.5777 22.5085 36.9341 22.3423" fill-rule="nonzero" stroke="rgb(107,114,128)" stroke-linecap="round" stroke-linejoin="round" stroke-width="1" />
			<path id="Vector" d="M29.4351 19.2458C27.7782 19.2458 26.4351 17.9027 26.4351 16.2458C26.4351 14.589 27.7782 13.2458 29.4351 13.2458C31.0919 13.2458 32.4351 14.589 32.4351 16.2458C32.4351 17.9027 31.0919 19.2458 29.4351 19.2458Z" stroke="rgb(107,114,128)" stroke-linecap="round" stroke-linejoin="round" stroke-width="1" />
		</g>
	</g>
	<g id="Container" customFrame="url(#clipPath_6)">
		<rect id="Container" width="7.998047" height="7.998047" x="51.376953" y="3.994141" rx="3.999023" fill="rgb(0,102,255)" />
	</g>
</svg>
