<svg viewBox="0 0 63.3691 40" xmlns="http://www.w3.org/2000/svg" xmlns:xlink="http://www.w3.org/1999/xlink" width="63.369141" height="40.000000" fill="none" customFrame="#000000">
	<defs>
		<clipPath id="clipPath_32">
			<rect width="47.373047" height="17.998047" x="7.998047" y="10.996094" fill="rgb(255,255,255)" />
		</clipPath>
		<clipPath id="clipPath_33">
			<rect width="17.998047" height="17.998047" x="22.685547" y="10.996094" fill="rgb(255,255,255)" />
		</clipPath>
	</defs>
	<rect id="Button" width="63.369141" height="40.000000" x="0.000000" y="0.000000" fill="rgb(0,0,0)" fill-opacity="0" />
	<g id="Container" customFrame="url(#clipPath_32)">
		<rect id="Container" width="47.373047" height="17.998047" x="7.998047" y="10.996094" />
		<g id="Frame" clip-path="url(#clipPath_33)" customFrame="url(#clipPath_33)">
			<rect id="Frame" width="17.998047" height="17.998047" x="22.685547" y="10.996094" fill="rgb(255,255,255)" fill-opacity="0" />
			<path id="Vector" d="M25.2843 21.3804C25.1641 21.3049 25.0678 21.1969 25.0066 21.0689C24.9453 20.9409 24.9216 20.7981 24.9383 20.6572C24.9549 20.5163 25.0112 20.383 25.1006 20.2727L32.5248 12.6236C32.5805 12.5593 32.6564 12.5159 32.7401 12.5004C32.8237 12.4849 32.9101 12.4984 32.9851 12.5385C33.0601 12.5786 33.1192 12.643 33.1528 12.7212C33.1863 12.7993 33.1923 12.8865 33.1698 12.9685L31.7299 17.4831C31.6875 17.5967 31.6732 17.7189 31.6884 17.8393C31.7035 17.9596 31.7477 18.0745 31.817 18.174C31.8863 18.2736 31.9787 18.3548 32.0863 18.4108C32.194 18.4668 32.3135 18.4958 32.4348 18.4954L37.6843 18.4954C37.8262 18.495 37.9653 18.5347 38.0855 18.6102C38.2057 18.6856 38.302 18.7936 38.3633 18.9217C38.4245 19.0497 38.4482 19.1924 38.4316 19.3334C38.4149 19.4743 38.3586 19.6076 38.2692 19.7178L30.845 27.367C30.7893 27.4313 30.7134 27.4747 30.6298 27.4902C30.5462 27.5056 30.4598 27.4922 30.3848 27.4521C30.3098 27.412 30.2506 27.3476 30.2171 27.2694C30.1835 27.1913 30.1775 27.104 30.2001 27.022L31.6399 22.5075C31.6824 22.3939 31.6966 22.2716 31.6815 22.1513C31.6663 22.0309 31.6222 21.9161 31.5529 21.8165C31.4836 21.717 31.3911 21.6357 31.2835 21.5797C31.1759 21.5238 31.0563 21.4947 30.935 21.4951L25.6856 21.4951C25.5437 21.4956 25.4045 21.4558 25.2843 21.3804Z" fill-rule="nonzero" stroke="rgb(107,114,128)" stroke-linecap="round" stroke-linejoin="round" stroke-width="1" />
		</g>
	</g>
</svg>
