<svg viewBox="0 0 17.998 17.998" xmlns="http://www.w3.org/2000/svg" xmlns:xlink="http://www.w3.org/1999/xlink" width="17.998047" height="17.998047" fill="none">
	<rect id="Frame" width="17.998047" height="17.998047" x="0.000000" y="0.000000" fill="rgb(255,255,255)" fill-opacity="0" />
	<path id="Vector" d="M7.7002 15.7483C7.83185 15.9763 8.02121 16.1656 8.24923 16.2973C8.47725 16.4289 8.7359 16.4982 8.9992 16.4982C9.26249 16.4982 9.52114 16.4289 9.74916 16.2973C9.97718 16.1656 10.1665 15.9763 10.2982 15.7483" fill-rule="nonzero" stroke="rgb(107,114,128)" stroke-linecap="round" stroke-linejoin="round" stroke-width="1" />
	<path id="Vector" d="M2.26009 11.8778C2.23662 12.0212 2.25534 12.1684 2.31397 12.3014C2.3726 12.4344 2.46862 12.5475 2.59035 12.6269C2.71208 12.7063 2.85426 12.7487 2.99961 12.7488L14.9983 12.7488C15.1436 12.7488 15.2859 12.7067 15.4077 12.6274C15.5295 12.5481 15.6256 12.4351 15.6844 12.3022C15.7432 12.1693 15.7621 12.0222 15.7388 11.8787C15.7155 11.7353 15.6511 11.6017 15.5533 11.4942C14.5559 10.466 13.4985 9.3734 13.4985 5.99951C13.4985 4.80617 13.0244 3.6617 12.1806 2.81788C11.3368 1.97405 10.1923 1.5 8.99896 1.5C7.80562 1.5 6.66115 1.97405 5.81733 2.81788C4.97351 3.6617 4.49945 4.80617 4.49945 5.99951C4.49945 9.3734 3.44132 10.466 2.44617 11.4934C2.34821 11.6008 2.28356 11.7343 2.26009 11.8778Z" fill-rule="nonzero" stroke="rgb(107,114,128)" stroke-linecap="round" stroke-linejoin="round" stroke-width="1" />
</svg>
