<svg viewBox="0 0 17.998 17.998" xmlns="http://www.w3.org/2000/svg" xmlns:xlink="http://www.w3.org/1999/xlink" width="17.998047" height="17.998047" fill="none">
	<rect id="Frame" width="17.998047" height="17.998047" x="0.000000" y="0.000000" fill="rgb(255,255,255)" fill-opacity="0" />
	<path id="Vector" d="M8.99919 16.4984C4.8575 16.4984 1.5 13.1409 1.5 8.99919C1.5 4.8575 4.8575 1.5 8.99919 1.5C13.1409 1.5 16.4984 4.8575 16.4984 8.99919C16.4984 13.1409 13.1409 16.4984 8.99919 16.4984Z" stroke="rgb(107,114,128)" stroke-linecap="round" stroke-linejoin="round" stroke-width="1" />
	<path id="Vector" d="M6.81689 6.74942C6.99322 6.24817 7.34126 5.8255 7.79936 5.55627C8.25746 5.28704 8.79607 5.18862 9.31978 5.27845C9.84349 5.36828 10.3185 5.64056 10.6607 6.04707C11.0029 6.45357 11.1902 6.96806 11.1894 7.49942C11.1894 8.99942 8.93939 9.74942 8.93939 9.74942" fill-rule="nonzero" stroke="rgb(107,114,128)" stroke-linecap="round" stroke-linejoin="round" stroke-width="1" />
	<path id="Vector" d="M8.99902 12.7486L9.00652 12.7486" stroke="rgb(107,114,128)" stroke-linecap="round" stroke-linejoin="round" stroke-width="1" />
</svg>
